<?xml version="1.0" encoding="utf-8"?>
<!-- Generator: Adobe Illustrator 22.0.1, SVG Export Plug-In . SVG Version: 6.00 Build 0)  -->
<svg version="1.1" id="Слой_1" xmlns="http://www.w3.org/2000/svg" xmlns:xlink="http://www.w3.org/1999/xlink" x="0px" y="0px"
	 viewBox="0 0 400 500" style="enable-background:new 0 0 400 500;" xml:space="preserve">
<style type="text/css">
	.st0{fill:#FFE4E1;}
	.st1{fill:#C4D7D1;stroke:#5B7494;stroke-width:5;stroke-miterlimit:10;}
	.st2{fill:#F5D1C3;stroke:#FF7473;stroke-width:4;stroke-miterlimit:10;}
	.st3{fill:#8A8DFF;stroke:#F7F3F0;stroke-width:3;stroke-miterlimit:10;}
	.st4{fill:#F7F3F0;stroke:#8A35FF;stroke-width:4;stroke-miterlimit:10;}
	.st5{fill:#40005F;}
	.st6{font-family:'MyriadPro-Regular';}
	.st7{font-size:75px;}
	.st8{fill:#F7F3F0;stroke:#5B7594;stroke-width:3;stroke-miterlimit:10;}
	.st9{fill:#8A8DFF;stroke:#5B7594;stroke-width:3;stroke-miterlimit:10;}
	.st10{fill:#F7F3F0;stroke:#FF7473;stroke-width:4;stroke-miterlimit:10;}
	.st11{font-family:'MS-UIGothic';}
	.st12{font-size:69.7747px;}
	.st13{fill:#F7F3F0;stroke:#5B7494;stroke-width:3;stroke-miterlimit:10;}
	.st14{fill:#F7F3F0;stroke:#5B7494;stroke-width:2;stroke-miterlimit:10;}
</style>
<rect x="-0.5" y="-0.5" class="st0" width="400" height="500"/>
<circle class="st1" cx="369.5" cy="269.5" r="85.5"/>
<circle class="st2" cx="369.9" cy="269.1" r="51.9"/>
<circle class="st1" cx="40.5" cy="131.5" r="85.5"/>
<circle class="st2" cx="40.9" cy="131.1" r="51.9"/>
<circle class="st3" cx="122.4" cy="317.6" r="59.6"/>
<ellipse class="st4" cx="122.5" cy="317.6" rx="40.5" ry="40.4"/>
<g>
	<g>
		<path class="st5" d="M382.3,286.1c-1.3,0-3.3-0.7-4.2-1.7c-1.2-1.2-1.7-2.4-2.2-4c-3.6,2.4-8,5.8-10.8,5.8c-6.4,0-11-5.3-11-11.1
			c0-4.4,2.4-7.3,7.4-9c5.5-1.9,12.2-4.2,14.2-5.8v-1.8c0-6.4-3.2-10.1-7.9-10.1c-2.1,0-3.3,1-4.2,2.1c-1,1.3-1.6,3.2-2.4,5.8
			c-0.5,1.4-1.3,2.1-2.6,2.1c-1.7,0-4-1.8-4-4c0-1.3,1.2-2.3,3-3.6c2.6-1.9,7.8-5.2,13-6.3c2.7,0,5.5,0.8,7.6,2.4
			c3.1,2.7,4.6,5.8,4.6,10.4c0,4.9,0,12.4,0,17.4c0,4.1,1.5,5.4,3.1,5.4c1.1,0,2.3-0.4,3.2-1l0.9,2.5L382.3,286.1z M375.7,263.3
			c-2,1-6.3,2.9-8.4,3.8c-3.4,1.5-5.5,3.2-5.5,6.6c0,4.8,3.6,6.9,6.5,6.9c2.3,0,5.6-1.4,7.4-3.2
			C375.7,273.2,375.7,267.6,375.7,263.3z"/>
	</g>
</g>
<text transform="matrix(1 0 0 1 92.3984 337.0352)" class="st5 st6 st7">@</text>
<ellipse class="st8" cx="277.2" cy="468.3" rx="77.2" ry="77.3"/>
<circle class="st2" cx="276.9" cy="468.1" r="51.9"/>
<g>
	<g>
		<path class="st5" d="M298.3,473.6v6.6h-41.4v-6.6H298.3z M300.6,451v6.6h-41.4V451H300.6z M271.8,437.2h6.4l-9.7,56.8h-6.4
			L271.8,437.2z M288.3,437.2h6.4L285,494h-6.4L288.3,437.2z"/>
	</g>
</g>
<circle class="st9" cx="281" cy="55" r="68"/>
<ellipse class="st10" cx="281" cy="56.6" rx="45" ry="45.4"/>
<g>
	<g>
		<path class="st5" d="M280.1,86.4c-3.2,0-5.5-2.3-5.5-5.8c0-3.2,2.3-5.8,5.5-5.8s5.7,2.5,5.7,5.8C285.8,84.1,283.3,86.4,280.1,86.4
			z M280,25.4c2.4,0,5.1,0.5,5.2,3.1c0,0.9-0.1,2.2-0.3,3.5c-0.6,6.9-2.4,23.1-3.1,33.8h-3.5c-0.8-10.7-2.4-26.5-3.2-33.7
			c-0.1-1.2-0.3-2.8-0.3-3.7C274.9,26,277.5,25.4,280,25.4z"/>
	</g>
</g>
<text transform="matrix(1.0374 0 0 1 4.6118 157.3462)" class="st5 st11 st12">水</text>
<circle class="st1" cx="150.5" cy="209.5" r="18"/>
<circle class="st13" cx="224" cy="345" r="21.5"/>
<circle class="st1" cx="93.5" cy="421.5" r="18"/>
<circle class="st13" cx="275" cy="163" r="23.5"/>
<circle class="st14" cx="124" cy="19" r="31.5"/>
<circle class="st3" cx="5" cy="269" r="23.5"/>
<circle class="st3" cx="406" cy="423" r="23.5"/>
</svg>
