<?xml version="1.0" encoding="utf-8"?>
<!-- Generator: Adobe Illustrator 22.1.0, SVG Export Plug-In . SVG Version: 6.00 Build 0)  -->
<svg version="1.1" id="Слой_1" xmlns="http://www.w3.org/2000/svg" xmlns:xlink="http://www.w3.org/1999/xlink" x="0px" y="0px"
	 viewBox="0 0 510 610" style="enable-background:new 0 0 510 610;" xml:space="preserve">
<style type="text/css">
	.st0{fill:#F7E1E0;}
	.st1{fill:#C3D5CF;stroke:#5B7291;stroke-width:5;stroke-miterlimit:10;}
	.st2{fill:#F3D1C4;stroke:#DC797B;stroke-width:4;stroke-miterlimit:10;}
	.st3{fill:#848AC2;stroke:#F6F2F0;stroke-width:3;stroke-miterlimit:10;}
	.st4{fill:#F6F2F0;stroke:#7F6EAE;stroke-width:4;stroke-miterlimit:10;}
	.st5{fill:#45385C;}
	.st6{font-family:'ArialMT';}
	.st7{font-size:51.0008px;}
	.st8{fill:#F6F2F0;stroke:#5A7390;stroke-width:3;stroke-miterlimit:10;}
	.st9{fill:#848AC2;stroke:#5A7390;stroke-width:3;stroke-miterlimit:10;}
	.st10{fill:#F6F2F0;stroke:#DC797B;stroke-width:4;stroke-miterlimit:10;}
	.st11{font-family:'MS-UIGothic';}
	.st12{font-size:69.7747px;}
	.st13{fill:#F6F2F0;stroke:#5B7291;stroke-width:3;stroke-miterlimit:10;}
	.st14{fill:#F6F2F0;stroke:#5B7291;stroke-width:2;stroke-miterlimit:10;}
</style>
<rect x="49.5" y="38.5" class="st0" width="400" height="500"/>
<circle class="st1" cx="419.5" cy="308.5" r="85.5"/>
<circle class="st2" cx="419.9" cy="308.1" r="51.9"/>
<circle class="st1" cx="90.5" cy="170.5" r="85.5"/>
<circle class="st2" cx="90.9" cy="170.1" r="51.9"/>
<circle class="st3" cx="172.4" cy="356.6" r="59.6"/>
<ellipse class="st4" cx="172.5" cy="356.6" rx="40.5" ry="40.4"/>
<g>
	<g>
		<path class="st5" d="M432.3,325.1c-1.3,0-3.3-0.7-4.2-1.7c-1.2-1.2-1.7-2.4-2.2-4c-3.6,2.4-8,5.8-10.8,5.8c-6.4,0-11-5.3-11-11.1
			c0-4.4,2.4-7.3,7.4-9c5.5-1.9,12.2-4.2,14.2-5.8v-1.8c0-6.4-3.2-10.1-7.9-10.1c-2.1,0-3.3,1-4.2,2.1c-1,1.3-1.6,3.2-2.4,5.8
			c-0.5,1.4-1.3,2.1-2.6,2.1c-1.7,0-4-1.8-4-4c0-1.3,1.2-2.3,3-3.6c2.6-1.9,7.8-5.2,13-6.3c2.7,0,5.5,0.8,7.6,2.4
			c3.1,2.7,4.6,5.8,4.6,10.4c0,4.9,0,12.4,0,17.4c0,4.1,1.5,5.4,3.1,5.4c1.1,0,2.3-0.4,3.2-1l0.9,2.5L432.3,325.1z M425.7,302.3
			c-2,1-6.3,2.9-8.4,3.8c-3.4,1.5-5.5,3.2-5.5,6.6c0,4.8,3.6,6.9,6.5,6.9c2.3,0,5.6-1.4,7.4-3.2
			C425.7,312.2,425.7,306.6,425.7,302.3z"/>
	</g>
</g>
<text transform="matrix(1.0353 0 0 1 145.3989 367.9395)" class="st5 st6 st7">@</text>
<ellipse class="st8" cx="327.2" cy="507.3" rx="77.2" ry="77.3"/>
<circle class="st2" cx="326.9" cy="507.1" r="51.9"/>
<g>
	<g>
		<path class="st5" d="M348.3,512.6v6.6h-41.4v-6.6H348.3z M350.6,490v6.6h-41.4V490H350.6z M321.8,476.2h6.4l-9.7,56.8h-6.4
			L321.8,476.2z M338.3,476.2h6.4L335,533h-6.4L338.3,476.2z"/>
	</g>
</g>
<circle class="st9" cx="331" cy="94" r="68"/>
<ellipse class="st10" cx="331" cy="95.6" rx="45" ry="45.4"/>
<g>
	<g>
		<path class="st5" d="M330.1,125.4c-3.2,0-5.5-2.3-5.5-5.8c0-3.2,2.3-5.8,5.5-5.8s5.7,2.5,5.7,5.8
			C335.8,123.1,333.3,125.4,330.1,125.4z M330,64.4c2.4,0,5.1,0.5,5.2,3.1c0,0.9-0.1,2.2-0.3,3.5c-0.6,6.9-2.4,23.1-3.1,33.8h-3.5
			c-0.8-10.7-2.4-26.5-3.2-33.7c-0.1-1.2-0.3-2.8-0.3-3.7C324.9,65,327.5,64.4,330,64.4z"/>
	</g>
</g>
<text transform="matrix(1.0374 0 0 1 54.6113 196.3462)" class="st5 st11 st12">水</text>
<circle class="st1" cx="200.5" cy="248.5" r="18"/>
<circle class="st13" cx="274" cy="384" r="21.5"/>
<circle class="st1" cx="143.5" cy="460.5" r="18"/>
<circle class="st13" cx="325" cy="202" r="23.5"/>
<circle class="st14" cx="174" cy="58" r="31.5"/>
<circle class="st3" cx="55" cy="308" r="23.5"/>
<circle class="st3" cx="456" cy="462" r="23.5"/>
</svg>
