<?xml version="1.0" encoding="utf-8"?>
<!-- Generator: Adobe Illustrator 22.1.0, SVG Export Plug-In . SVG Version: 6.00 Build 0)  -->
<svg version="1.1" id="Слой_1" xmlns="http://www.w3.org/2000/svg" xmlns:xlink="http://www.w3.org/1999/xlink" x="0px" y="0px"
	 viewBox="0 0 540 640" style="enable-background:new 0 0 540 640;" xml:space="preserve">
<style type="text/css">
	.st0{fill:#5A7390;stroke:#A7D2C5;stroke-width:2;stroke-miterlimit:10;}
	.st1{fill:#5A7390;}
	.st2{fill:none;stroke:#DDD2E8;stroke-width:5;stroke-miterlimit:10;}
	.st3{fill:none;stroke:#DDD2E8;stroke-width:3;stroke-miterlimit:10;}
	.st4{fill:none;stroke:#F0D0C3;stroke-width:3;stroke-miterlimit:10;}
	.st5{fill:none;stroke:#E6B4A1;stroke-width:2;stroke-miterlimit:10;}
	.st6{fill:none;stroke:#E6B4A1;stroke-miterlimit:10;}
	.st7{fill:none;stroke:#E6B4A1;stroke-width:3;stroke-miterlimit:10;}
	.st8{fill:none;stroke:#AAD8EE;stroke-width:2;stroke-miterlimit:10;}
	.st9{fill:none;stroke:#D2EAF6;stroke-width:2;stroke-miterlimit:10;}
	.st10{fill:none;stroke:#A7D2C5;stroke-width:3;stroke-miterlimit:10;}
	.st11{fill:#C2D4CE;stroke:#3A436C;stroke-width:3;stroke-miterlimit:10;}
	.st12{fill:#F6F2F0;stroke:#3A436C;stroke-width:3;stroke-miterlimit:10;}
	.st13{fill:#F3D1C3;stroke:#3A436C;stroke-width:3;stroke-miterlimit:10;}
	.st14{fill:#EBB5A1;stroke:#3A436C;stroke-width:3;stroke-miterlimit:10;}
</style>
<ellipse class="st0" cx="168.6" cy="79.8" rx="64.2" ry="63.9"/>
<ellipse class="st0" cx="321" cy="559.1" rx="71.5" ry="69"/>
<ellipse class="st0" cx="467.5" cy="440.5" rx="64.2" ry="63.9"/>
<path class="st0" d="M130.6,306.6c6.2-9.8,9.8-21.5,9.8-34c0-35.3-28.7-63.9-64.2-63.9s-64.2,28.6-64.2,63.9
	c0,29.8,20.5,54.8,48.1,61.9c-6.2,9.8-9.8,21.5-9.8,34c0,35.3,28.7,63.9,64.2,63.9s64.2-28.6,64.2-63.9
	C178.7,338.6,158.2,313.6,130.6,306.6z"/>
<rect x="72" y="58.1" class="st1" width="400.6" height="500.6"/>
<line class="st2" x1="171.2" y1="85.5" x2="233.1" y2="196.4"/>
<line class="st2" x1="319.8" y1="142.1" x2="234.8" y2="196.4"/>
<line class="st2" x1="331.9" y1="147.9" x2="410" y2="220.7"/>
<line class="st2" x1="314.6" y1="154.8" x2="299" y2="290.7"/>
<line class="st2" x1="295.5" y1="312.1" x2="319.2" y2="538.1"/>
<line class="st3" x1="229" y1="198.8" x2="86.8" y2="267"/>
<line class="st4" x1="238.3" y1="210.9" x2="292.1" y2="304"/>
<line class="st4" x1="297.3" y1="306.3" x2="141.8" y2="517.8"/>
<line class="st4" x1="482.8" y1="436.9" x2="304.2" y2="309.2"/>
<line class="st5" x1="415.8" y1="225.3" x2="470.1" y2="429.4"/>
<line class="st6" x1="70.1" y1="268.7" x2="314" y2="541.5"/>
<line class="st7" x1="479.3" y1="440.4" x2="334.8" y2="539.8"/>
<line class="st8" x1="397.8" y1="235.2" x2="304.2" y2="304.5"/>
<line class="st9" x1="82.2" y1="272.2" x2="287.4" y2="310.3"/>
<line class="st8" x1="157.9" y1="81.4" x2="84.5" y2="265.8"/>
<line class="st10" x1="68.9" y1="278.5" x2="95.5" y2="371"/>
<line class="st10" x1="142.3" y1="516.7" x2="301.3" y2="547.3"/>
<line class="st4" x1="101.9" y1="369.9" x2="141.8" y2="517.8"/>
<ellipse class="st11" cx="231.1" cy="194.1" rx="29.2" ry="28.3"/>
<ellipse class="st12" cx="64.4" cy="271.9" rx="28.8" ry="28.6"/>
<ellipse class="st11" cx="100.9" cy="371.9" rx="36.6" ry="36.7"/>
<ellipse class="st11" cx="304.3" cy="317.3" rx="38" ry="37.6"/>
<ellipse class="st11" cx="404.5" cy="227.9" rx="28" ry="27.5"/>
<ellipse class="st12" cx="484.9" cy="439.3" rx="33" ry="33.2"/>
<ellipse class="st13" cx="321.2" cy="555.9" rx="43.1" ry="42.7"/>
<ellipse class="st14" cx="168.3" cy="70.4" rx="33" ry="33.2"/>
<ellipse class="st14" cx="322.3" cy="141.6" rx="38.5" ry="38"/>
<ellipse class="st11" cx="209.4" cy="425.9" rx="29.2" ry="28.3"/>
<ellipse class="st12" cx="140.4" cy="514.8" rx="28.8" ry="28.6"/>
</svg>
