<?xml version="1.0" encoding="utf-8"?>
<!-- Generator: Adobe Illustrator 22.1.0, SVG Export Plug-In . SVG Version: 6.00 Build 0)  -->
<svg version="1.1" id="Слой_1" xmlns="http://www.w3.org/2000/svg" xmlns:xlink="http://www.w3.org/1999/xlink" x="0px" y="0px"
	 viewBox="0 0 500 600" style="enable-background:new 0 0 500 600;" xml:space="preserve">
<style type="text/css">
	.st0{fill:#F6F2F0;}
	.st1{fill:#C2D4CE;}
	.st2{fill:#F6F2F0;stroke:#59718C;stroke-width:3;stroke-miterlimit:10;}
	.st3{fill:#EBB5A1;stroke:#586F89;stroke-width:3;stroke-miterlimit:10;}
	.st4{fill:#5A7390;}
	.st5{fill:#F3D1C3;stroke:#E2A794;stroke-width:3;stroke-miterlimit:10;}
	.st6{fill:#F5F1F0;stroke:#E2A794;stroke-width:3;stroke-miterlimit:10;}
	.st7{fill:#5A7390;stroke:#A7B5BD;stroke-width:3;stroke-miterlimit:10;}
	.st8{fill:#E8A893;stroke:#BD8983;stroke-width:3;stroke-miterlimit:10;}
	.st9{fill:#A6B4AE;stroke:#697B8A;stroke-width:3;stroke-miterlimit:10;}
	.st10{fill:#DF846E;}
	.st11{fill:#484D89;}
	.st12{fill:#EBB5A1;}
	.st13{fill:#F3D1C3;}
	.st14{fill:#FFFFFF;}
</style>
<rect x="49.8" y="53.7" class="st0" width="400.8" height="498.1"/>
<polygon class="st1" points="49.1,326 350.4,551.9 450.6,551.9 450.6,385 49.1,84 "/>
<polygon class="st1" points="49.8,370 49.8,551.9 292.5,551.9 "/>
<ellipse class="st2" cx="418.8" cy="501.7" rx="43.1" ry="42.7"/>
<ellipse class="st3" cx="335.4" cy="541.6" rx="29" ry="29"/>
<path class="st4" d="M324,295.4"/>
<ellipse class="st3" cx="451.4" cy="418.1" rx="33" ry="33.2"/>
<circle class="st2" cx="244.7" cy="547.6" r="22.1"/>
<path class="st5" d="M333.8,439.9c-38.9,48.7-104.2,44.8-113.6,44.1c-68.3-5.1-145.6-63.5-147.6-149.7c-1.9-85,70.8-141,125.4-153.8
	c13.9-3.3,42.8-10.1,63.3,5.2c25.6,19.1,8.6,50.9,34.2,94.6c23.5,40,50.2,34.7,60.9,68.5C370.4,392.7,336.2,436.9,333.8,439.9z"/>
<ellipse class="st6" cx="224.5" cy="243.1" rx="39.3" ry="37.8"/>
<ellipse class="st7" cx="134.1" cy="276.8" rx="24.5" ry="23.7"/>
<ellipse class="st8" cx="119.4" cy="339.9" rx="24.5" ry="23.7"/>
<ellipse class="st9" cx="146.6" cy="398.6" rx="20.9" ry="20.3"/>
<ellipse class="st2" cx="441.6" cy="342.3" rx="25.3" ry="25"/>
<polygon class="st1" points="450.6,230.3 450.6,53.7 215.1,53.7 "/>
<ellipse class="st3" cx="160.7" cy="50.5" rx="22.2" ry="22.1"/>
<ellipse class="st2" cx="78.8" cy="82.6" rx="43.1" ry="42.7"/>
<ellipse class="st3" cx="46.3" cy="170.6" rx="29" ry="29"/>
<polygon class="st4" points="347.8,305.8 338.1,293.9 343,290 352.7,301.9 "/>
<path class="st10" d="M346.7,289.9c-2.9-9.8,3.2-22,12.5-27.8c8.5-5.3,17.5-3.9,22.7-3.1c16.7,2.6,28.6,14.3,27.8,15.8
	c-0.7,1.2-8.8-6-17.1-3.3c-10,3.3-7.6,16.9-20.3,24.6c-0.7,0.4-11.9,7-19.7,2.2C348.5,295.8,347.1,291.3,346.7,289.9z"/>
<polygon class="st11" points="128.2,480.5 118.5,468.5 338.4,293.8 348.1,305.7 "/>
<polygon class="st4" points="172.2,515.4 159.5,511.1 286.1,161.1 298.8,165.4 "/>
<polygon class="st12" points="298.2,167.1 285.5,162.8 288.7,153.8 301.4,158.1 "/>
<polygon class="st12" points="288.7,153.8 301.4,158.1 304.7,132.1 "/>
<polygon class="st13" points="172,516 158.9,511.6 162.2,502.6 175.2,507 "/>
<polygon class="st14" points="170.4,519.8 157.7,515.5 161,506.5 173.7,510.8 "/>
<path class="st13" d="M349.5,282.5c-1.2,3.5-1,9.1,2.5,12.2c3,2.6,7.4,2.5,10.3,1.5c4.6-1.6,6.7-6,7.5-7.7c2.5-5.3,0.5-7.7,3.2-12.3
	c2.5-4.3,5.8-5,5.5-5.8C377.6,268.2,353.5,270.3,349.5,282.5z"/>
<polyline class="st11" points="302.6,148.2 304.7,132.1 295.1,145.2 "/>
</svg>
