<?xml version="1.0" encoding="utf-8"?>
<!-- Generator: Adobe Illustrator 22.1.0, SVG Export Plug-In . SVG Version: 6.00 Build 0)  -->
<svg version="1.1" xmlns="http://www.w3.org/2000/svg" xmlns:xlink="http://www.w3.org/1999/xlink" x="0px" y="0px"
	 viewBox="0 0 400 500" style="enable-background:new 0 0 400 500;" xml:space="preserve">
<style type="text/css">
	.st0{fill:#848AC2;}
	.st1{fill:#C18AC2;}
	.st2{fill:#9CABC2;}
	.st3{fill:#C3D5CF;stroke:#5B7291;stroke-width:3;stroke-miterlimit:10;}
	.st4{fill:#F3D185;stroke:#DC9446;stroke-width:4;stroke-miterlimit:10;}
	.st5{fill:#5B4647;stroke:#4B3346;stroke-width:3;stroke-miterlimit:10;}
	.st6{fill:#E7E7E7;stroke:#91A591;stroke-width:3;stroke-miterlimit:10;}
	.st7{fill:#F3D1C4;stroke:#DCAA8F;stroke-width:4;stroke-miterlimit:10;}
	.st8{fill:#F7E1E0;stroke:#DCAA8F;stroke-width:3;stroke-miterlimit:10;}
</style>
<g id="Слой_2">
	<rect class="st0" width="400" height="500"/>
	<rect x="46" y="72" transform="matrix(0.7512 0.6601 -0.6601 0.7512 116.1454 -65.1508)" class="st1" width="197" height="99"/>
	<rect x="41" y="135" transform="matrix(0.9028 0.43 -0.43 0.9028 92.8836 -42.0555)" class="st2" width="197" height="99"/>
	
		<rect x="48.7" y="288" transform="matrix(-0.6601 0.7512 -0.7512 -0.6601 681.1466 366.6892)" class="st1" width="417.9" height="99"/>
	
		<rect x="48.7" y="327" transform="matrix(-0.9686 0.2485 -0.2485 -0.9686 554.185 683.0624)" class="st2" width="370.6" height="99"/>
</g>
<g id="Слой_1">
	<circle class="st3" cx="152.9" cy="229.1" r="90.1"/>
	<g>
		<rect x="73.2" y="10.1" transform="matrix(0.947 -0.3214 0.3214 0.947 3.908 55.3001)" class="st4" width="192.5" height="11.5"/>
		<path class="st5" d="M274.5-10.2c-3.9,0.1-7.8,0.2-11.8,0.2L259-20.8c3.1-2.4,6.3-4.7,9.4-7.1c5.6-2.8,12,0.2,13.8,4.7
			C284.1-18.5,281-11.5,274.5-10.2z"/>
	</g>
	<circle class="st6" cx="153" cy="229" r="64"/>
	<circle class="st7" cx="199.4" cy="122.6" r="73.6"/>
	<circle class="st8" cx="199.5" cy="122.5" r="62.5"/>
	<circle class="st7" cx="247.8" cy="349" r="115"/>
	<circle class="st8" cx="247.9" cy="349.1" r="86.9"/>
	<g>
		
			<rect x="54.9" y="243.1" transform="matrix(0.9543 -0.2988 0.2988 0.9543 -66.5042 65.1942)" class="st4" width="250" height="14"/>
		<path class="st5" d="M316.8,218.9c-5.1,0.1-10.1,0.1-15.2,0.2l-4.2-13.4c4.2-2.9,8.4-5.8,12.6-8.7c7.4-3.4,15.5,0.3,17.5,5.8
			C329.7,208.7,325.4,217.2,316.8,218.9z"/>
	</g>
	<g>
		
			<rect x="75.3" y="129.2" transform="matrix(-0.9403 -0.3403 0.3403 -0.9403 342.3589 332.3573)" class="st4" width="250" height="14"/>
		<path class="st5" d="M72.5,78c4.1,3,8.1,6,12.2,9L80,100.2c-5.1-0.2-10.2-0.5-15.2-0.7c-8-1.8-12.1-9.6-10.4-15.2
			C56.2,78.3,64.7,74.2,72.5,78z"/>
	</g>
	<g>
		<rect x="33.4" y="354.6" transform="matrix(0.979 0.204 -0.204 0.979 77.0874 -24.716)" class="st4" width="250" height="14"/>
		<path class="st5" d="M293.2,401c-4.5-2.4-8.9-4.8-13.4-7.2l2.9-13.7c5.1-0.5,10.1-1,15.2-1.4c8.1,0.7,13.4,7.8,12.4,13.6
			C309.3,398.4,301.4,403.7,293.2,401z"/>
	</g>
	<g>
		
			<rect x="179.5" y="452.6" transform="matrix(-0.8339 0.5519 -0.5519 -0.8339 758.7373 688.3124)" class="st4" width="192.5" height="11.5"/>
		<path class="st5" d="M180.9,510.2c3.8-1.1,7.5-2.1,11.3-3.2l6.3,9.6c-2.4,3.1-4.9,6.2-7.3,9.3c-4.7,4.1-11.6,2.9-14.5-1
			C173.7,520.7,174.9,513.2,180.9,510.2z"/>
	</g>
</g>
<g id="Слой_3">
</g>
</svg>
